<?xml version="1.0" encoding="utf-8"?>
<!-- Generator: Adobe Illustrator 16.0.0, SVG Export Plug-In . SVG Version: 6.00 Build 0)  -->
<!DOCTYPE svg PUBLIC "-//W3C//DTD SVG 1.1//EN" "http://www.w3.org/Graphics/SVG/1.1/DTD/svg11.dtd">
<svg version="1.1" xmlns="http://www.w3.org/2000/svg" xmlns:xlink="http://www.w3.org/1999/xlink" x="0px" y="0px" width="2000px"
	 height="2000px" viewBox="0 0 2000 2000" enable-background="new 0 0 2000 2000" xml:space="preserve">
<g id="Layer_1" display="none">
	<g id="Layer_3">
		<circle display="inline" fill="#00994C" cx="1077.357" cy="688.5" r="673.857"/>
	</g>
	<g id="Layer_2">
		<path display="inline" fill="#0037FF" d="M1093.624,892.065c0,0-111.853,167.915-113.19,309.038
			c165.17,31.97,204.862,30.33,204.862,30.33s-3.347-90.995,5.339-117.652c8.686-26.658,13.502-108.066-23.41-137.628
			C1130.313,946.589,1089.956,896.809,1093.624,892.065z"/>
	</g>
</g>
<g id="Layer_2_1_">
	<g id="Layer_1_1_">
		<g>
			<g>
				<g>
					<path d="M1326.841,842.763c57.362-278.392,201.271-303.265,377.863-437.319c100.823-76.538,72.974-103.625,185.921-240.971
						c-218.806,117.601-420.8,206.545-551.907,342.977c-1.349-159.163-29.1-395.131-71.764-504.265
						C1149.208,192.16,1147,343.274,1156.246,473.382c-1.094,139.305-9.449,201.252-106.643,370.289
						c-90.092-51-167.376-106.481-181.514-169.342c-29.774-132.382-90.245-164.767-74.568-370.324
						c7.04-92.266-57.237-166.598-97-282.467c-41.063,102-124.234,188.291-87.788,276.868
						c109.712,266.65,37.198,300.262,86.783,386.573c-219.93,1.601-329.82-336.216-587.749-473.354
						c168.01,236.226,49.987,309.798,209.065,429.963c101.251,76.482,153.398,97.953,272.179,161.729
						c92.855,49.854,232.305,43.134,268.419,122.282c28.519,74.082,86.347,193.058,71.899,269.986
						C929.33,1195.586,1310.899,972.765,1326.841,842.763z"/>
				</g>
			</g>
			<g>
				<g>
					<path d="M790.187,1134.664c-81.251,243.721-214.063,329.853-390.5,450.958c-100.727,69.15-80.899,96.455-202.295,223.572
						c210.574-103.394,401.72-179.969,538.824-305.391c-25.196,153.207-40.062,381.495-20.884,488.405
						c134.141-176.577,161.11-321.883,174.592-447.482c24.043-133.996,41.604-193.226,154.494-351.537
						c70.229,53.092,128.527,109.927,130.461,171.041c4.065,128.707,135.929,137.428,88.177,334.515
						c-21.439,88.462-15.522,187.993,0,301.255c52.764-96.312,175.428-178.894,158.271-265.752
						c-51.626-261.464-8.469-257.157-37.469-342.42c192.333,8.272,319.921,349.048,522.449,492.513
						c-107.583-234.797-16.258-254.053-135.272-376.771c-75.751-78.105-163.736-172.976-256.904-239.643
						c-72.828-52.114-203.253-93.814-305.813-235.821c-106.506-138.063-234.429-37.07-209.065-110.449
						C999.252,921.657,825.689,921.657,790.187,1134.664z"/>
				</g>
			</g>
		</g>
	</g>
</g>
</svg>
