<?xml version="1.0" encoding="utf-8"?>
<!-- Generator: Adobe Illustrator 16.0.0, SVG Export Plug-In . SVG Version: 6.00 Build 0)  -->
<!DOCTYPE svg PUBLIC "-//W3C//DTD SVG 1.1//EN" "http://www.w3.org/Graphics/SVG/1.1/DTD/svg11.dtd">
<svg version="1.1" id="Layer_1" xmlns="http://www.w3.org/2000/svg" xmlns:xlink="http://www.w3.org/1999/xlink" x="0px" y="0px"
	 width="2000px" height="2000px" viewBox="0 0 2000 2000" enable-background="new 0 0 2000 2000" xml:space="preserve">
<g>
	<defs>
		<circle id="SVGID_1_" cx="999.25" cy="1000.75" r="999.25"/>
	</defs>
	<clipPath id="SVGID_2_">
		<use xlink:href="#SVGID_1_"  overflow="visible"/>
	</clipPath>
	<g clip-path="url(#SVGID_2_)">
		<path fill-rule="evenodd" clip-rule="evenodd" d="M422.645,698.407c5.025,53.502,22.432,99.39,40.71,144.607
			c36.249,89.662,88.725,165.977,147.375,237.047c115.206,139.591,255.304,252.509,405.24,354.646
			c151.146,102.968,313.07,192.091,482.721,271.149c8.57,3.997,16.287,9.183,25.563,14.475
			c-26.003,17.339-50.592,22.604-74.897,32.761c-131.36,54.875-261.141,95.61-388.254,115.066
			c-107.957,16.528-208.797,15.613-301.592-5.625c-107.128-24.511-193.667-75.488-262.288-148.968
			c-70.881-75.912-118.895-170.337-151.738-276.677c-51.513-166.777-65.875-351.83-62.312-545.945
			c2.324-126.506,14.001-256.085,28.781-386.762c1.565-13.815,6.872-17.224,19.647-20.015
			c126.98-27.752,251.892-46.921,375.91-62.944c114.399-14.778,227.746-25.54,335.423-20.638
			c190.354,8.664,345.097,70.301,464.566,184.365c81.127,77.455,138.615,174.127,173.296,289.253
			c32.973,109.465,41.818,230.622,30.145,361.409c-8.418,94.215-17.574,188.635-31.488,284.516
			c-1.789,12.281-0.332,23.706-6.525,37.905c-13.909,1.815-24.324-3.474-35.993-6.03
			c-180.119-39.506-349.305-96.151-505.162-173.372c-144.366-71.529-275.415-159.177-390.828-265.514
			c-118.804-109.47-219.957-234.922-294.512-384.521c-5.921-11.876-12.147-23.529-18.235-35.28
			c-0.033-2.394-1.439-4.675-3.641-3.018C421.465,692.624,421.787,695.922,422.645,698.407z"/>
		<path fill-rule="evenodd" clip-rule="evenodd" d="M422.645,698.407c-0.858-2.484-1.18-5.783,1.91-8.109
			c2.202-1.657,3.608,0.624,3.641,3.018C426.348,695.009,424.499,696.711,422.645,698.407z"/>
	</g>
</g>
</svg>
