<?xml version="1.0" encoding="utf-8"?>
<!-- Generator: Adobe Illustrator 16.0.0, SVG Export Plug-In . SVG Version: 6.00 Build 0)  -->
<!DOCTYPE svg PUBLIC "-//W3C//DTD SVG 1.1//EN" "http://www.w3.org/Graphics/SVG/1.1/DTD/svg11.dtd">
<svg version="1.1" id="Layer_1" xmlns="http://www.w3.org/2000/svg" xmlns:xlink="http://www.w3.org/1999/xlink" x="0px" y="0px"
	 width="2000px" height="2000px" viewBox="0 0 2000 2000" enable-background="new 0 0 2000 2000" xml:space="preserve">
<g id="Layer_3" display="none">
	<circle display="inline" fill="#00994C" cx="1077.357" cy="688.5" r="673.857"/>
</g>
<g id="Layer_1_1_">
	<g>
		<g>
			<defs>
				<circle id="SVGID_1_" cx="1000.541" cy="1000.541" r="999.459"/>
			</defs>
			<clipPath id="SVGID_2_">
				<use xlink:href="#SVGID_1_"  overflow="visible"/>
			</clipPath>
			<g clip-path="url(#SVGID_2_)">
				<path d="M1457.016,1177.945c75.287-138.062,24.604-136.508,106.191-233.624c45.407-65.288,50.271-181.973,53.944-309.774
					c-69.322,191.871-161.565,180.002-182.897,273.993c-37.783,166.458-86.017,191.474-135.281,284.939
					c-31.759,60.281-79.936,110.919-164.815,88.714c-94.165-258.123-18.784-318.063,59.496-458.285
					c44.691-80.06,22.323-99.09,61.666-232.803c-107.071,132.365-209.993,237.823-260.44,373.413
					c-33.89-135.59-99.608-332.84-147.933-419.698c-31.496,178.46-1.418,307.704,31.18,417.35
					c28.293,119.008,36.146,173.08,12.857,331.521c-64.748-30.318-122.729-66.337-144.291-117.896
					c-45.408-108.58-88.483-127.355-121.781-305.02c-14.943-79.746-69.024-133.75-117.004-226.78
					c-3.482,93.031-67.776,191.211-27.461,261.444c121.357,211.426,69.069,224.625,116.81,291.001
					c-131.854,33.566-330.5-229.263-514.026-308.497c150.074,176.936,95.153,212.589,215.739,291.813
					c76.751,50.426,167.273,112.52,251.92,149.538c66.171,28.938,128.362,58.485,166.517,120.721
					c32.537,59.026,167.121,93.771,174.426,161.518h0.03V2002h243.015v-394.868c10.809-62.51,94.653-128.389,119.801-168.579
					c33.493-53.538,87.979-90.371,150.876-119.996c139.419-65.67,222.492-90.777,287.578-130.569
					c122.32-64.077,127.226-193.693,224.722-315.608C1732.937,953.038,1723.403,1092.574,1457.016,1177.945z"/>
			</g>
		</g>
	</g>
</g>
<g id="Layer_2" display="none">
	<path display="inline" fill="#0037FF" d="M1093.624,892.065c0,0-111.853,167.915-113.19,309.038
		c165.17,31.97,204.862,30.33,204.862,30.33s-3.347-90.995,5.339-117.652c8.686-26.658,13.502-108.066-23.41-137.628
		C1130.313,946.589,1089.956,896.809,1093.624,892.065z"/>
</g>
</svg>
